<svg id="hiring" xmlns="http://www.w3.org/2000/svg" width="198.001" height="198" viewBox="0 0 198.001 198">
  <g id="Group_46" data-name="Group 46" transform="translate(120.657 15.469)">
    <g id="Group_45" data-name="Group 45">
      <path id="Path_33" data-name="Path 33" d="M340.617,40A28.6,28.6,0,0,0,320.9,89.324a3.831,3.831,0,0,0,.456.435,28.563,28.563,0,0,0,38.531,0,3.862,3.862,0,0,0,.456-.435A28.6,28.6,0,0,0,340.617,40Zm0,49.5a20.76,20.76,0,0,1-11.994-3.8,14.23,14.23,0,0,1,23.987,0A20.76,20.76,0,0,1,340.617,89.5Zm-3.98-22.09V65.448a3.98,3.98,0,1,1,7.96,0V67.41a3.98,3.98,0,1,1-7.96,0Zm21.457,12.618a21.775,21.775,0,0,0-7.608-6.318,11.64,11.64,0,0,0,1.845-6.3V65.448a11.715,11.715,0,1,0-23.429,0V67.41a11.643,11.643,0,0,0,1.845,6.3,21.77,21.77,0,0,0-7.608,6.318,20.883,20.883,0,1,1,34.954,0Z" transform="translate(-312 -40)" fill="#fff"/>
    </g>
  </g>
  <g id="Group_48" data-name="Group 48">
    <g id="Group_47" data-name="Group 47">
      <path id="Path_34" data-name="Path 34" d="M193.875,149.858a14.948,14.948,0,0,0-19.059-1.736q-.066.045-.129.093l-21.678,16.3a3.867,3.867,0,1,0,4.648,6.181l21.608-16.25a7.213,7.213,0,0,1,9.14.878,6.354,6.354,0,0,1-.493,9.43l-19.787,16.026a42.671,42.671,0,0,1-26.775,9.483H84.114a42.535,42.535,0,0,1-22.037-6.153L46.5,174.681V125.736H76.326a15.362,15.362,0,0,1,10.932,4.525l20.574,20.67a15.368,15.368,0,0,0,10.938,4.531h15.173a5.793,5.793,0,1,1,0,11.585H104.8a13.737,13.737,0,0,1-7.509-2.227l-12.41-8.072-.045-.029a3.867,3.867,0,0,0-4.228,6.477L93.075,171.3a21.453,21.453,0,0,0,11.726,3.478h29.141a13.527,13.527,0,0,0,0-27.054H119.015l32.151-18.563h39.1A7.743,7.743,0,0,0,198,121.43V7.734A7.743,7.743,0,0,0,190.266,0H108.282a7.743,7.743,0,0,0-7.734,7.734v113.7a7.743,7.743,0,0,0,7.734,7.734H135.7l-24.524,14.159h0L92.732,124.8A23.051,23.051,0,0,0,76.325,118H46.5v-6.819a7.743,7.743,0,0,0-7.734-7.734H3.867A3.867,3.867,0,0,0,0,107.315v86.819A3.867,3.867,0,0,0,3.867,198h34.9a7.743,7.743,0,0,0,7.734-7.734v-6.543l11.567,7.005A50.269,50.269,0,0,0,84.114,198H141.35a50.429,50.429,0,0,0,31.643-11.207l19.787-16.026a14.088,14.088,0,0,0,1.094-20.909ZM108.282,121.43V7.734h81.985l.005,113.7h-81.99ZM38.769,190.266H7.734V111.182H38.769v10.674s0,.009,0,.013,0,.008,0,.013l0,54.789c0,.1,0,.2,0,.292v13.3Z" fill="#fff"/>
    </g>
  </g>
  <g id="Group_50" data-name="Group 50" transform="translate(46.592 17.543)">
    <g id="Group_49" data-name="Group 49">
      <path id="Path_35" data-name="Path 35" d="M164.443,47.3a3.867,3.867,0,0,0-5.283-1.415l-34.814,20.1a7.744,7.744,0,0,0-2.831,10.565L155.3,135.07A3.867,3.867,0,1,0,162,131.2L128.213,72.681l34.814-20.1A3.867,3.867,0,0,0,164.443,47.3Z" transform="translate(-120.481 -45.364)" fill="#fff"/>
    </g>
  </g>
  <g id="Group_52" data-name="Group 52" transform="translate(124.524 81.985)">
    <g id="Group_51" data-name="Group 51">
      <path id="Path_36" data-name="Path 36" d="M370.727,212H325.867a3.867,3.867,0,0,0,0,7.734h44.859a3.867,3.867,0,1,0,0-7.734Z" transform="translate(-322 -212)" fill="#fff"/>
    </g>
  </g>
  <g id="Group_54" data-name="Group 54" transform="translate(169.383 99)">
    <g id="Group_53" data-name="Group 53">
      <path id="Path_37" data-name="Path 37" d="M444.6,257.133a3.865,3.865,0,1,0,1.133,2.734A3.9,3.9,0,0,0,444.6,257.133Z" transform="translate(-438 -256)" fill="#fff"/>
    </g>
  </g>
  <g id="Group_56" data-name="Group 56" transform="translate(124.524 99)">
    <g id="Group_55" data-name="Group 55">
      <path id="Path_38" data-name="Path 38" d="M354.6,256h-28.73a3.867,3.867,0,1,0,0,7.734H354.6a3.867,3.867,0,1,0,0-7.734Z" transform="translate(-322 -256)" fill="#fff"/>
    </g>
  </g>
  <g id="Group_58" data-name="Group 58" transform="translate(19.384 142.524)">
    <g id="Group_57" data-name="Group 57">
      <path id="Path_39" data-name="Path 39" d="M53.992,368.547a3.867,3.867,0,0,0-3.867,3.867v15.129a3.867,3.867,0,0,0,7.734,0V372.414A3.867,3.867,0,0,0,53.992,368.547Z" transform="translate(-50.125 -368.547)" fill="#fff"/>
    </g>
  </g>
  <g id="Group_60" data-name="Group 60" transform="translate(19.386 170.965)">
    <g id="Group_59" data-name="Group 59">
      <path id="Path_40" data-name="Path 40" d="M56.731,443.223a3.875,3.875,0,1,0,1.129,2.734A3.906,3.906,0,0,0,56.731,443.223Z" transform="translate(-50.13 -442.09)" fill="#fff"/>
    </g>
  </g>
</svg>
