<svg xmlns="http://www.w3.org/2000/svg" width="180.181" height="180.181" viewBox="0 0 180.181 180.181">
  <g id="hr" transform="translate(-1 -1)">
    <path id="Path_8" data-name="Path 8" d="M166.65,1H140.5a14.547,14.547,0,0,0-14.531,14.531V37.577L113.587,49.954a34.8,34.8,0,0,0-10.224-6,23.249,23.249,0,1,0-24.545,0,34.9,34.9,0,0,0-22.6,32.6V96.9a14.547,14.547,0,0,0,14.531,14.531v10.421L52.107,140.5H15.531A14.547,14.547,0,0,0,1,155.026V166.65a14.547,14.547,0,0,0,14.531,14.531H41.686A14.547,14.547,0,0,0,56.217,166.65V144.6l14.531-14.531v39.483a11.576,11.576,0,0,0,20.343,7.608,11.576,11.576,0,0,0,20.343-7.608V111.434A14.547,14.547,0,0,0,125.964,96.9V76.56a34.71,34.71,0,0,0-8.268-22.5l12.377-12.377H166.65a14.547,14.547,0,0,0,14.531-14.531V15.531A14.547,14.547,0,0,0,166.65,1ZM50.4,166.65a8.729,8.729,0,0,1-8.718,8.718H15.531a8.729,8.729,0,0,1-8.718-8.718V155.026a8.729,8.729,0,0,1,8.718-8.718H50.4Zm23.249-142.4A17.437,17.437,0,1,1,91.091,41.686,17.454,17.454,0,0,1,73.654,24.249Zm46.5,72.654a8.729,8.729,0,0,1-8.718,8.718V67.841h-5.812V169.557a5.812,5.812,0,0,1-11.625,0V99.809H88.184v69.748a5.812,5.812,0,0,1-11.625,0V67.841H70.748v37.78A8.729,8.729,0,0,1,62.029,96.9V76.56a29.061,29.061,0,0,1,58.123,0Zm55.217-69.748a8.729,8.729,0,0,1-8.718,8.718H131.777V15.531A8.729,8.729,0,0,1,140.5,6.812H166.65a8.729,8.729,0,0,1,8.718,8.718Z" fill="#fff"/>
    <path id="Path_9" data-name="Path 9" d="M48,5H79.968v5.812H48Z" transform="translate(89.589 7.625)" fill="#fff"/>
    <path id="Path_10" data-name="Path 10" d="M57,9h5.812v5.812H57Z" transform="translate(106.744 15.249)" fill="#fff"/>
    <path id="Path_11" data-name="Path 11" d="M48,9H68.343v5.812H48Z" transform="translate(89.589 15.249)" fill="#fff"/>
    <path id="Path_12" data-name="Path 12" d="M5,57H36.968v5.812H5Z" transform="translate(7.625 106.744)" fill="#fff"/>
    <path id="Path_13" data-name="Path 13" d="M5,53h5.812v5.812H5Z" transform="translate(7.625 99.12)" fill="#fff"/>
    <path id="Path_14" data-name="Path 14" d="M9,53H29.343v5.812H9Z" transform="translate(15.249 99.12)" fill="#fff"/>
    <path id="Path_15" data-name="Path 15" d="M99.123,38H93.311V87.4H87.5V43.812H81.686V87.4H75.874V61.249H70.061V87.4H64.249V52.531H58.437V87.4H52.625V58.343H46.812V87.4H41v5.812h63.935V87.4H99.123Z" transform="translate(76.246 70.527)" fill="#fff"/>
    <path id="Path_16" data-name="Path 16" d="M61,59h5.812v5.812H61Z" transform="translate(114.369 110.556)" fill="#fff"/>
    <path id="Path_17" data-name="Path 17" d="M41,59H93.311v5.812H41Z" transform="translate(76.246 110.556)" fill="#fff"/>
    <path id="Path_18" data-name="Path 18" d="M32.968,64.935A31.968,31.968,0,1,0,1,32.968,32.005,32.005,0,0,0,32.968,64.935ZM59.123,32.968A25.98,25.98,0,0,1,55.479,46.22l-9.416-7.062a14.381,14.381,0,0,0,1.436-6.19A14.558,14.558,0,0,0,35.874,18.73V6.984A26.188,26.188,0,0,1,59.123,32.968ZM32.968,24.249a8.718,8.718,0,1,1-8.718,8.718A8.729,8.729,0,0,1,32.968,24.249ZM30.061,6.984V18.73A14.522,14.522,0,1,0,42.561,43.8l9.428,7.071A26.137,26.137,0,1,1,30.061,6.984Z" transform="translate(0 0)" fill="#fff"/>
  </g>
</svg>
