<svg id="target" xmlns="http://www.w3.org/2000/svg" width="177.606" height="177.606" viewBox="0 0 177.606 177.606">
  <g id="Group_18" data-name="Group 18">
    <g id="Group_17" data-name="Group 17">
      <path id="Path_19" data-name="Path 19" d="M2.96,0A2.96,2.96,0,0,0,0,2.96V35.521H5.92V5.92h29.6V0Z" fill="#fff"/>
    </g>
  </g>
  <g id="Group_20" data-name="Group 20" transform="translate(142.085)">
    <g id="Group_19" data-name="Group 19">
      <path id="Path_20" data-name="Path 20" d="M416.561,0H384V5.92h29.6v29.6h5.92V2.96A2.96,2.96,0,0,0,416.561,0Z" transform="translate(-384)" fill="#fff"/>
    </g>
  </g>
  <g id="Group_22" data-name="Group 22" transform="translate(0 142.085)">
    <g id="Group_21" data-name="Group 21">
      <path id="Path_21" data-name="Path 21" d="M5.92,413.6V384H0v32.561a2.96,2.96,0,0,0,2.96,2.96H35.521V413.6Z" transform="translate(0 -384)" fill="#fff"/>
    </g>
  </g>
  <g id="Group_24" data-name="Group 24" transform="translate(142.085 142.085)">
    <g id="Group_23" data-name="Group 23">
      <path id="Path_22" data-name="Path 22" d="M413.6,384v29.6H384v5.92h32.561a2.96,2.96,0,0,0,2.96-2.96V384Z" transform="translate(-384 -384)" fill="#fff"/>
    </g>
  </g>
  <g id="Group_26" data-name="Group 26">
    <g id="Group_25" data-name="Group 25">
      <path id="Path_23" data-name="Path 23" d="M171.612,85.843A82.96,82.96,0,0,0,91.763,5.994V0h-5.92V5.994A82.96,82.96,0,0,0,5.994,85.843H0v5.92H5.994a82.96,82.96,0,0,0,79.849,79.849v5.994h5.92v-5.994a82.96,82.96,0,0,0,79.849-79.849h5.994v-5.92h-5.994ZM26,133.2a77.093,77.093,0,0,1-5.278-8.584V113.372a9.768,9.768,0,0,1,9.768-9.768h6.58l-4.3,10.739a2.96,2.96,0,0,0,.657,3.194l5.92,5.92a2.96,2.96,0,0,0,4.186,0l5.92-5.92a2.96,2.96,0,0,0,.657-3.194l-4.3-10.739h6.58a9.768,9.768,0,0,1,9.768,9.768V133.2ZM45.523,78.129,56.1,84.478c-1.187,7.246-10.118,13.2-14.661,13.2A18.649,18.649,0,0,1,27.052,85.689C32.12,85.272,41.27,83.735,45.523,78.129ZM26.8,79.751c.794-9.92,5.462-14.629,14.637-14.629,8.4,0,13.024,3.972,14.348,12.261l-9.863-5.92a2.96,2.96,0,0,0-4.331,1.6C40.1,77.555,32.011,79.257,26.8,79.751ZM43.886,114.73l-2.445,2.448L39,114.73l2.445-6.119Zm47.877,50.961v-5.846h-5.92v5.846a76.8,76.8,0,0,1-55.2-26.567H65.122a2.96,2.96,0,0,0,2.96-2.96v-14.8h41.441v14.8a2.96,2.96,0,0,0,2.96,2.96H146.96A76.8,76.8,0,0,1,91.763,165.691ZM92.885,60.368l10.579,6.349c-1.187,7.246-10.118,13.2-14.661,13.2A18.649,18.649,0,0,1,74.414,67.928C79.482,67.511,88.631,65.975,92.885,60.368ZM74.166,61.99c.794-9.92,5.462-14.629,14.637-14.629,8.4,0,13.024,3.972,14.348,12.261L93.287,53.7a2.96,2.96,0,0,0-4.331,1.6C87.459,59.794,79.372,61.5,74.166,61.99ZM91.248,96.97,88.8,99.418,86.358,96.97,88.8,90.851ZM84.431,85.843l-4.3,10.739a2.96,2.96,0,0,0,.657,3.194l5.92,5.92a2.96,2.96,0,0,0,4.186,0l5.92-5.92a2.961,2.961,0,0,0,.657-3.194l-4.3-10.739h6.58a9.768,9.768,0,0,1,9.768,9.768v19.833H68.082V95.611a9.768,9.768,0,0,1,9.768-9.768Zm72.454,38.777a77.1,77.1,0,0,1-5.278,8.584H115.444V113.372a9.768,9.768,0,0,1,9.768-9.768h6.58l-4.3,10.739a2.96,2.96,0,0,0,.657,3.194l5.92,5.92a2.96,2.96,0,0,0,4.186,0l5.92-5.92a2.96,2.96,0,0,0,.657-3.194l-4.3-10.739h6.58a9.768,9.768,0,0,1,9.768,9.768ZM140.246,78.129l10.579,6.349c-1.187,7.246-10.118,13.2-14.661,13.2a18.649,18.649,0,0,1-14.389-11.994C126.843,85.272,135.993,83.735,140.246,78.129Zm-18.719,1.622c.794-9.92,5.462-14.629,14.637-14.629,8.4,0,13.024,3.972,14.348,12.261l-9.863-5.92a2.96,2.96,0,0,0-4.331,1.6C134.821,77.555,126.734,79.257,121.527,79.751ZM138.61,114.73l-2.445,2.448-2.445-2.448,2.445-6.119Zm27.082-22.967a76.573,76.573,0,0,1-3.132,18.992,15.576,15.576,0,0,0-13.48-12.927,20.549,20.549,0,0,0,7.806-14.946c0-19.572-11.269-23.681-20.721-23.681s-20.721,4.109-20.721,23.681a20.549,20.549,0,0,0,7.806,14.946,15.636,15.636,0,0,0-6.737,2.492c-.376.252-.719.533-1.069.814V95.611a15.638,15.638,0,0,0-13.726-15.552,20.55,20.55,0,0,0,7.806-14.937c0-19.572-11.269-23.681-20.721-23.681S68.082,45.55,68.082,65.122a20.549,20.549,0,0,0,7.806,14.946A15.638,15.638,0,0,0,62.162,95.611v5.512c-.349-.278-.693-.562-1.069-.814a15.631,15.631,0,0,0-6.737-2.492,20.549,20.549,0,0,0,7.806-14.934c0-19.572-11.269-23.681-20.721-23.681S20.721,63.311,20.721,82.883a20.549,20.549,0,0,0,7.806,14.946,15.576,15.576,0,0,0-13.48,12.927,76.572,76.572,0,0,1-3.132-18.992h5.846v-5.92H11.914A77.039,77.039,0,0,1,85.843,11.914v5.846h5.92V11.914a77.039,77.039,0,0,1,73.928,73.928h-5.846v5.92Z" fill="#fff"/>
    </g>
  </g>
</svg>
