<svg xmlns="http://www.w3.org/2000/svg" width="165.149" height="199.425" viewBox="0 0 165.149 199.425">
  <g id="approved" transform="translate(-44)">
    <g id="Group_28" data-name="Group 28" transform="translate(44 65.047)">
      <g id="Group_27" data-name="Group 27">
        <path id="Path_24" data-name="Path 24" d="M50.648,168.141A3.892,3.892,0,1,0,51.79,170.9,3.921,3.921,0,0,0,50.648,168.141Z" transform="translate(-44 -167)" fill="#fff"/>
      </g>
    </g>
    <g id="Group_30" data-name="Group 30" transform="translate(44)">
      <g id="Group_29" data-name="Group 29">
        <path id="Path_25" data-name="Path 25" d="M197.464,0H118.655a3.9,3.9,0,1,0,0,7.79h78.809a3.9,3.9,0,0,1,3.9,3.9V187.74a3.9,3.9,0,0,1-3.9,3.895H55.685a3.9,3.9,0,0,1-3.9-3.895V83.483a3.9,3.9,0,0,0-7.79,0V187.74a11.7,11.7,0,0,0,11.685,11.685H197.464a11.7,11.7,0,0,0,11.685-11.685V11.685A11.7,11.7,0,0,0,197.464,0Z" transform="translate(-44)" fill="#fff"/>
      </g>
    </g>
    <g id="Group_32" data-name="Group 32" transform="translate(75.431 15.58)">
      <g id="Group_31" data-name="Group 31">
        <path id="Path_26" data-name="Path 26" d="M175.839,40a52.428,52.428,0,0,0-7.916.6,3.9,3.9,0,0,0,1.181,7.7,44.554,44.554,0,0,1,6.736-.511A43.989,43.989,0,0,1,209.5,120.125a39.025,39.025,0,0,0-20.334-17.016,19.027,19.027,0,0,0,5.756-13.641v-3.8a19.086,19.086,0,1,0-38.171,0v3.8a19.025,19.025,0,0,0,5.756,13.641,39.033,39.033,0,0,0-20.375,17.085,43.87,43.87,0,0,1-9.7-21.053,3.9,3.9,0,0,0-7.683,1.288A51.808,51.808,0,1,0,175.839,40Zm-11.3,45.669a11.3,11.3,0,1,1,22.591,0v3.8a11.3,11.3,0,1,1-22.591,0Zm11.3,50.149a43.961,43.961,0,0,1-27.925-9.925,31.155,31.155,0,0,1,55.816-.066A43.81,43.81,0,0,1,175.839,135.818Z" transform="translate(-124.696 -40)" fill="#fff"/>
      </g>
    </g>
    <g id="Group_34" data-name="Group 34" transform="translate(103.343 155.022)">
      <g id="Group_33" data-name="Group 33">
        <path id="Path_27" data-name="Path 27" d="M255.561,398H200.252a3.9,3.9,0,0,0,0,7.79h55.309a3.9,3.9,0,1,0,0-7.79Z" transform="translate(-196.357 -398.002)" fill="#fff"/>
      </g>
    </g>
    <g id="Group_36" data-name="Group 36" transform="translate(86.705 133.21)">
      <g id="Group_35" data-name="Group 35">
        <path id="Path_28" data-name="Path 28" d="M160.289,343.141a3.893,3.893,0,1,0,1.141,2.754A3.923,3.923,0,0,0,160.289,343.141Z" transform="translate(-153.64 -342)" fill="#fff"/>
      </g>
    </g>
    <g id="Group_38" data-name="Group 38" transform="translate(86.705 155.022)">
      <g id="Group_37" data-name="Group 37">
        <path id="Path_29" data-name="Path 29" d="M160.289,399.141a3.893,3.893,0,1,0,1.141,2.754A3.916,3.916,0,0,0,160.289,399.141Z" transform="translate(-153.64 -398)" fill="#fff"/>
      </g>
    </g>
    <g id="Group_40" data-name="Group 40" transform="translate(103.343 133.21)">
      <g id="Group_39" data-name="Group 39">
        <path id="Path_30" data-name="Path 30" d="M255.561,342H200.252a3.895,3.895,0,1,0,0,7.79h55.309a3.895,3.895,0,1,0,0-7.79Z" transform="translate(-196.357 -342.002)" fill="#fff"/>
      </g>
    </g>
    <g id="Group_42" data-name="Group 42" transform="translate(60.638 21.306)">
      <g id="Group_41" data-name="Group 41">
        <path id="Path_31" data-name="Path 31" d="M115.894,55.841a3.9,3.9,0,0,0-5.509,0L97.7,68.526l-4.335-4.335A3.9,3.9,0,0,0,87.857,69.7l7.089,7.089a3.9,3.9,0,0,0,5.509,0L115.894,61.35A3.9,3.9,0,0,0,115.894,55.841Z" transform="translate(-86.716 -54.701)" fill="#fff"/>
      </g>
    </g>
    <g id="Group_44" data-name="Group 44" transform="translate(44)">
      <g id="Group_43" data-name="Group 43">
        <path id="Path_32" data-name="Path 32" d="M75.939,0a31.939,31.939,0,1,0,31.939,31.939A31.975,31.975,0,0,0,75.939,0Zm0,56.088a24.149,24.149,0,1,1,24.149-24.149A24.176,24.176,0,0,1,75.939,56.088Z" transform="translate(-44)" fill="#fff"/>
      </g>
    </g>
  </g>
</svg>
