<svg xmlns="http://www.w3.org/2000/svg" width="149.14" height="149.14" viewBox="0 0 149.14 149.14">
  <g id="hiring" transform="translate(0 0)">
    <g id="Group_46" data-name="Group 46" transform="translate(90.882 11.652)">
      <g id="Group_45" data-name="Group 45">
        <path id="Path_33" data-name="Path 33" d="M333.555,40A21.54,21.54,0,0,0,318.7,77.152a2.883,2.883,0,0,0,.344.328,21.515,21.515,0,0,0,29.023,0,2.908,2.908,0,0,0,.344-.328A21.54,21.54,0,0,0,333.555,40Zm0,37.285a15.637,15.637,0,0,1-9.034-2.865,10.719,10.719,0,0,1,18.068,0A15.637,15.637,0,0,1,333.555,77.285Zm-3-16.639V59.168a3,3,0,0,1,6,0v1.478a3,3,0,1,1-6,0Zm16.162,9.5a16.4,16.4,0,0,0-5.731-4.759,8.768,8.768,0,0,0,1.39-4.745V59.168a8.824,8.824,0,1,0-17.647,0v1.478a8.77,8.77,0,0,0,1.39,4.745,16.4,16.4,0,0,0-5.731,4.759,15.73,15.73,0,1,1,26.328,0Z" transform="translate(-312 -40)" fill="#243259"/>
      </g>
    </g>
    <g id="Group_48" data-name="Group 48">
      <g id="Group_47" data-name="Group 47">
        <path id="Path_34" data-name="Path 34" d="M146.032,112.877a11.259,11.259,0,0,0-14.356-1.308q-.049.034-.1.07l-16.329,12.28a2.913,2.913,0,1,0,3.5,4.656l16.276-12.24a5.433,5.433,0,0,1,6.885.662,4.786,4.786,0,0,1-.372,7.1l-14.9,12.072a32.141,32.141,0,0,1-20.167,7.143H63.357a32.038,32.038,0,0,1-16.6-4.635l-11.731-7.1V94.708H57.491a11.572,11.572,0,0,1,8.234,3.408l15.5,15.569A11.575,11.575,0,0,0,89.46,117.1h11.429a4.363,4.363,0,1,1,0,8.726H78.939a10.347,10.347,0,0,1-5.656-1.678l-9.348-6.08-.034-.022a2.913,2.913,0,0,0-3.184,4.879l9.39,6.107a16.159,16.159,0,0,0,8.832,2.62h21.95a10.189,10.189,0,0,0,0-20.378H89.645l24.217-13.982h29.452a5.832,5.832,0,0,0,5.826-5.826V5.826A5.832,5.832,0,0,0,143.314,0H81.561a5.832,5.832,0,0,0-5.826,5.826V91.465a5.832,5.832,0,0,0,5.826,5.826h20.65L83.739,107.956h0L69.849,94A17.363,17.363,0,0,0,57.49,88.882H35.028V83.746A5.832,5.832,0,0,0,29.2,77.92H2.913A2.913,2.913,0,0,0,0,80.833v65.394a2.913,2.913,0,0,0,2.913,2.913H29.2a5.832,5.832,0,0,0,5.826-5.826v-4.928l8.712,5.277a37.864,37.864,0,0,0,19.617,5.477h43.112A37.984,37.984,0,0,0,130.3,140.7l14.9-12.072a10.612,10.612,0,0,0,.824-15.749ZM81.561,91.465V5.826h61.753l0,85.639H81.561ZM29.2,143.314H5.826V83.746H29.2v8.04s0,.006,0,.01,0,.006,0,.01l0,41.269c0,.074,0,.147,0,.22v10.02Z" fill="#243259"/>
      </g>
    </g>
    <g id="Group_50" data-name="Group 50" transform="translate(35.095 13.214)">
      <g id="Group_49" data-name="Group 49">
        <path id="Path_35" data-name="Path 35" d="M153.594,46.821a2.913,2.913,0,0,0-3.979-1.066l-26.223,15.14a5.833,5.833,0,0,0-2.132,7.958l25.45,44.08a2.913,2.913,0,1,0,5.045-2.913l-25.45-44.08L152.528,50.8A2.913,2.913,0,0,0,153.594,46.821Z" transform="translate(-120.481 -45.364)" fill="#243259"/>
      </g>
    </g>
    <g id="Group_52" data-name="Group 52" transform="translate(93.795 61.753)">
      <g id="Group_51" data-name="Group 51">
        <path id="Path_36" data-name="Path 36" d="M358.7,212h-33.79a2.913,2.913,0,1,0,0,5.826H358.7a2.913,2.913,0,1,0,0-5.826Z" transform="translate(-322 -212)" fill="#243259"/>
      </g>
    </g>
    <g id="Group_54" data-name="Group 54" transform="translate(127.585 74.57)">
      <g id="Group_53" data-name="Group 53">
        <path id="Path_37" data-name="Path 37" d="M442.972,256.853a2.911,2.911,0,1,0,.853,2.059A2.935,2.935,0,0,0,442.972,256.853Z" transform="translate(-438 -256)" fill="#243259"/>
      </g>
    </g>
    <g id="Group_56" data-name="Group 56" transform="translate(93.795 74.57)">
      <g id="Group_55" data-name="Group 55">
        <path id="Path_38" data-name="Path 38" d="M346.553,256h-21.64a2.913,2.913,0,1,0,0,5.826h21.64a2.913,2.913,0,0,0,0-5.826Z" transform="translate(-322 -256)" fill="#243259"/>
      </g>
    </g>
    <g id="Group_58" data-name="Group 58" transform="translate(14.601 107.354)">
      <g id="Group_57" data-name="Group 57">
        <path id="Path_39" data-name="Path 39" d="M53.038,368.547a2.913,2.913,0,0,0-2.913,2.913v11.4a2.913,2.913,0,0,0,5.826,0v-11.4A2.913,2.913,0,0,0,53.038,368.547Z" transform="translate(-50.125 -368.547)" fill="#243259"/>
      </g>
    </g>
    <g id="Group_60" data-name="Group 60" transform="translate(14.602 128.776)">
      <g id="Group_59" data-name="Group 59">
        <path id="Path_40" data-name="Path 40" d="M55.1,442.943A2.918,2.918,0,1,0,55.953,445,2.942,2.942,0,0,0,55.1,442.943Z" transform="translate(-50.13 -442.09)" fill="#243259"/>
      </g>
    </g>
  </g>
</svg>
