<svg id="target" xmlns="http://www.w3.org/2000/svg" width="149.14" height="149.14" viewBox="0 0 149.14 149.14">
  <g id="Group_18" data-name="Group 18">
    <g id="Group_17" data-name="Group 17">
      <path id="Path_19" data-name="Path 19" d="M2.486,0A2.486,2.486,0,0,0,0,2.486V29.828H4.971V4.971H29.828V0Z" fill="#243259"/>
    </g>
  </g>
  <g id="Group_20" data-name="Group 20" transform="translate(119.312)">
    <g id="Group_19" data-name="Group 19">
      <path id="Path_20" data-name="Path 20" d="M411.342,0H384V4.971h24.857V29.828h4.971V2.486A2.486,2.486,0,0,0,411.342,0Z" transform="translate(-384)" fill="#243259"/>
    </g>
  </g>
  <g id="Group_22" data-name="Group 22" transform="translate(0 119.312)">
    <g id="Group_21" data-name="Group 21">
      <path id="Path_21" data-name="Path 21" d="M4.971,408.857V384H0v27.342a2.486,2.486,0,0,0,2.486,2.486H29.828v-4.971Z" transform="translate(0 -384)" fill="#243259"/>
    </g>
  </g>
  <g id="Group_24" data-name="Group 24" transform="translate(119.312 119.312)">
    <g id="Group_23" data-name="Group 23">
      <path id="Path_22" data-name="Path 22" d="M408.857,384v24.857H384v4.971h27.342a2.486,2.486,0,0,0,2.486-2.486V384Z" transform="translate(-384 -384)" fill="#243259"/>
    </g>
  </g>
  <g id="Group_26" data-name="Group 26">
    <g id="Group_25" data-name="Group 25">
      <path id="Path_23" data-name="Path 23" d="M144.106,72.084A69.663,69.663,0,0,0,77.055,5.033V0H72.084V5.033A69.663,69.663,0,0,0,5.033,72.084H0v4.971H5.033a69.663,69.663,0,0,0,67.051,67.051v5.033h4.971v-5.033a69.663,69.663,0,0,0,67.051-67.051h5.033V72.084h-5.033ZM21.832,111.855a64.737,64.737,0,0,1-4.432-7.208V95.2A8.2,8.2,0,0,1,25.6,87h5.526l-3.607,9.018a2.486,2.486,0,0,0,.552,2.682l4.971,4.971a2.486,2.486,0,0,0,3.515,0L41.53,98.7a2.486,2.486,0,0,0,.552-2.682L38.471,87H44a8.2,8.2,0,0,1,8.2,8.2v16.654Zm16.4-46.248,8.884,5.332c-1,6.085-8.5,11.089-12.311,11.089A15.66,15.66,0,0,1,22.716,71.955C26.972,71.6,34.655,70.314,38.227,65.607ZM22.508,66.969c.667-8.33,4.587-12.284,12.291-12.284,7.054,0,10.937,3.336,12.048,10.3l-8.282-4.971a2.485,2.485,0,0,0-3.637,1.345C33.671,65.124,26.88,66.554,22.508,66.969ZM36.852,96.342,34.8,98.4l-2.053-2.056L34.8,91.2Zm40.2,42.793v-4.909H72.084v4.909a64.488,64.488,0,0,1-46.35-22.309h28.95a2.486,2.486,0,0,0,2.486-2.486V101.912h34.8V114.34a2.486,2.486,0,0,0,2.486,2.486h28.95A64.487,64.487,0,0,1,77.055,139.135ZM78,50.693l8.884,5.332c-1,6.085-8.5,11.089-12.311,11.089A15.66,15.66,0,0,1,62.487,57.041C66.742,56.69,74.426,55.4,78,50.693ZM62.279,52.055c.667-8.33,4.587-12.284,12.291-12.284,7.054,0,10.937,3.336,12.048,10.3l-8.282-4.971A2.485,2.485,0,0,0,74.7,46.44C73.441,50.21,66.651,51.64,62.279,52.055ZM76.623,81.428,74.57,83.483l-2.053-2.056L74.57,76.29ZM70.9,72.084,67.292,81.1a2.486,2.486,0,0,0,.552,2.682l4.971,4.971a2.486,2.486,0,0,0,3.515,0L81.3,83.784a2.486,2.486,0,0,0,.552-2.682l-3.612-9.018h5.526a8.2,8.2,0,0,1,8.2,8.2V96.941H57.17V80.287a8.2,8.2,0,0,1,8.2-8.2Zm60.842,32.562a64.738,64.738,0,0,1-4.432,7.208H96.941V95.2a8.2,8.2,0,0,1,8.2-8.2h5.526l-3.607,9.018a2.486,2.486,0,0,0,.552,2.682l4.971,4.971a2.486,2.486,0,0,0,3.515,0l4.971-4.971a2.486,2.486,0,0,0,.552-2.682L118.012,87h5.526a8.2,8.2,0,0,1,8.2,8.2Zm-13.972-39.04,8.884,5.332c-1,6.085-8.5,11.089-12.311,11.089a15.66,15.66,0,0,1-12.083-10.072C106.513,71.6,114.2,70.314,117.768,65.607Zm-15.719,1.362c.667-8.33,4.587-12.284,12.291-12.284,7.054,0,10.937,3.336,12.048,10.3l-8.282-4.971a2.485,2.485,0,0,0-3.637,1.345C113.212,65.124,106.421,66.554,102.049,66.969Zm14.344,29.373L114.34,98.4l-2.053-2.056L114.34,91.2Zm22.741-19.286A64.3,64.3,0,0,1,136.505,93a13.08,13.08,0,0,0-11.32-10.855A17.256,17.256,0,0,0,131.74,69.6c0-16.435-9.463-19.885-17.4-19.885s-17.4,3.45-17.4,19.885a17.256,17.256,0,0,0,6.555,12.55,13.13,13.13,0,0,0-5.657,2.093c-.316.211-.6.447-.9.684V80.287a13.132,13.132,0,0,0-11.526-13.06,17.256,17.256,0,0,0,6.555-12.543c0-16.435-9.463-19.885-17.4-19.885s-17.4,3.45-17.4,19.885a17.256,17.256,0,0,0,6.555,12.55A13.132,13.132,0,0,0,52.2,80.287v4.628c-.293-.234-.582-.472-.9-.684a13.126,13.126,0,0,0-5.657-2.093A17.256,17.256,0,0,0,52.2,69.6c0-16.435-9.463-19.885-17.4-19.885S17.4,53.163,17.4,69.6a17.256,17.256,0,0,0,6.555,12.55A13.08,13.08,0,0,0,12.635,93,64.3,64.3,0,0,1,10,77.055h4.909V72.084H10A64.692,64.692,0,0,1,72.084,10v4.909h4.971V10a64.692,64.692,0,0,1,62.079,62.079h-4.909v4.971Z" fill="#243259"/>
    </g>
  </g>
</svg>
