<svg xmlns="http://www.w3.org/2000/svg" width="123.506" height="149.14" viewBox="0 0 123.506 149.14">
  <g id="approved" transform="translate(-44)">
    <g id="Group_28" data-name="Group 28" transform="translate(44 48.645)">
      <g id="Group_27" data-name="Group 27">
        <path id="Path_24" data-name="Path 24" d="M48.972,167.853a2.91,2.91,0,1,0,.854,2.059A2.933,2.933,0,0,0,48.972,167.853Z" transform="translate(-44 -167)" fill="#243259"/>
      </g>
    </g>
    <g id="Group_30" data-name="Group 30" transform="translate(44)">
      <g id="Group_29" data-name="Group 29">
        <path id="Path_25" data-name="Path 25" d="M158.768,0H99.83a2.913,2.913,0,1,0,0,5.826h58.937a2.916,2.916,0,0,1,2.913,2.913V140.4a2.916,2.916,0,0,1-2.913,2.913H52.739a2.916,2.916,0,0,1-2.913-2.913V62.433a2.913,2.913,0,1,0-5.826,0V140.4a8.749,8.749,0,0,0,8.739,8.739H158.768a8.749,8.749,0,0,0,8.739-8.739V8.739A8.749,8.749,0,0,0,158.768,0Z" transform="translate(-44)" fill="#243259"/>
      </g>
    </g>
    <g id="Group_32" data-name="Group 32" transform="translate(67.506 11.652)">
      <g id="Group_31" data-name="Group 31">
        <path id="Path_26" data-name="Path 26" d="M162.943,40a39.208,39.208,0,0,0-5.92.45,2.913,2.913,0,0,0,.883,5.758,33.32,33.32,0,0,1,5.037-.382,32.9,32.9,0,0,1,25.175,54.1A29.185,29.185,0,0,0,172.912,87.2a14.229,14.229,0,0,0,4.3-10.2v-2.84a14.273,14.273,0,1,0-28.546,0v2.84a14.228,14.228,0,0,0,4.3,10.2,29.191,29.191,0,0,0-15.238,12.777,32.808,32.808,0,0,1-7.255-15.744,2.913,2.913,0,0,0-5.746.964A38.744,38.744,0,1,0,162.943,40ZM154.5,74.154a8.447,8.447,0,1,1,16.895,0v2.84a8.447,8.447,0,0,1-16.895,0Zm8.447,37.5a32.876,32.876,0,0,1-20.884-7.423,23.3,23.3,0,0,1,41.742-.05A32.763,32.763,0,0,1,162.943,111.658Z" transform="translate(-124.696 -40)" fill="#243259"/>
      </g>
    </g>
    <g id="Group_34" data-name="Group 34" transform="translate(88.38 115.933)">
      <g id="Group_33" data-name="Group 33">
        <path id="Path_27" data-name="Path 27" d="M240.633,398H199.27a2.913,2.913,0,0,0,0,5.826h41.363a2.913,2.913,0,1,0,0-5.826Z" transform="translate(-196.357 -398.002)" fill="#243259"/>
      </g>
    </g>
    <g id="Group_36" data-name="Group 36" transform="translate(75.937 99.621)">
      <g id="Group_35" data-name="Group 35">
        <path id="Path_28" data-name="Path 28" d="M158.612,342.853a2.911,2.911,0,1,0,.853,2.059A2.934,2.934,0,0,0,158.612,342.853Z" transform="translate(-153.64 -342)" fill="#243259"/>
      </g>
    </g>
    <g id="Group_38" data-name="Group 38" transform="translate(75.937 115.933)">
      <g id="Group_37" data-name="Group 37">
        <path id="Path_29" data-name="Path 29" d="M158.612,398.853a2.911,2.911,0,1,0,.853,2.059A2.928,2.928,0,0,0,158.612,398.853Z" transform="translate(-153.64 -398)" fill="#243259"/>
      </g>
    </g>
    <g id="Group_40" data-name="Group 40" transform="translate(88.38 99.621)">
      <g id="Group_39" data-name="Group 39">
        <path id="Path_30" data-name="Path 30" d="M240.633,342H199.27a2.913,2.913,0,0,0,0,5.826h41.363a2.913,2.913,0,1,0,0-5.826Z" transform="translate(-196.357 -342.002)" fill="#243259"/>
      </g>
    </g>
    <g id="Group_42" data-name="Group 42" transform="translate(56.443 15.934)">
      <g id="Group_41" data-name="Group 41">
        <path id="Path_31" data-name="Path 31" d="M108.537,55.554a2.914,2.914,0,0,0-4.12,0L94.931,65.04,91.689,61.8a2.913,2.913,0,0,0-4.12,4.12l5.3,5.3a2.913,2.913,0,0,0,4.12,0l11.546-11.546A2.913,2.913,0,0,0,108.537,55.554Z" transform="translate(-86.716 -54.701)" fill="#243259"/>
      </g>
    </g>
    <g id="Group_44" data-name="Group 44" transform="translate(44)">
      <g id="Group_43" data-name="Group 43">
        <path id="Path_32" data-name="Path 32" d="M67.886,0A23.886,23.886,0,1,0,91.771,23.886,23.913,23.913,0,0,0,67.886,0Zm0,41.946a18.06,18.06,0,1,1,18.06-18.06A18.08,18.08,0,0,1,67.886,41.946Z" transform="translate(-44)" fill="#243259"/>
      </g>
    </g>
  </g>
</svg>
