<svg xmlns="http://www.w3.org/2000/svg" width="148.715" height="148.715" viewBox="0 0 148.715 148.715">
  <g id="hr" transform="translate(-1 -1)">
    <path id="Path_8" data-name="Path 8" d="M137.722,1H116.134a12.007,12.007,0,0,0-11.993,11.993v18.2L93.925,41.4a28.72,28.72,0,0,0-8.438-4.948,19.189,19.189,0,1,0-20.259,0A28.807,28.807,0,0,0,46.574,63.364v16.79A12.007,12.007,0,0,0,58.567,92.148v8.6L43.182,116.134H12.993A12.007,12.007,0,0,0,1,128.127v9.595a12.007,12.007,0,0,0,11.993,11.993H34.581a12.007,12.007,0,0,0,11.993-11.993v-18.2l11.993-11.993V140.12a9.555,9.555,0,0,0,16.79,6.28,9.555,9.555,0,0,0,16.79-6.28V92.148a12.007,12.007,0,0,0,11.993-11.993V63.364A28.648,28.648,0,0,0,97.317,44.8l10.216-10.216h30.189a12.007,12.007,0,0,0,11.993-11.993V12.993A12.007,12.007,0,0,0,137.722,1ZM41.777,137.722a7.2,7.2,0,0,1-7.2,7.2H12.993a7.2,7.2,0,0,1-7.2-7.2v-9.595a7.2,7.2,0,0,1,7.2-7.2H41.777ZM60.966,20.189A14.392,14.392,0,1,1,75.357,34.581,14.406,14.406,0,0,1,60.966,20.189ZM99.344,80.155a7.2,7.2,0,0,1-7.2,7.2V56.168h-4.8V140.12a4.8,4.8,0,0,1-9.594,0V82.553h-4.8V140.12a4.8,4.8,0,0,1-9.595,0V56.168h-4.8V87.351a7.2,7.2,0,0,1-7.2-7.2V63.364a23.986,23.986,0,0,1,47.973,0Zm45.574-57.567a7.2,7.2,0,0,1-7.2,7.2H108.938V12.993a7.2,7.2,0,0,1,7.2-7.2h21.588a7.2,7.2,0,0,1,7.2,7.2Z" transform="translate(0 0)" fill="#243259"/>
    <path id="Path_9" data-name="Path 9" d="M48,5H74.385V9.8H48Z" transform="translate(65.735 5.595)" fill="#243259"/>
    <path id="Path_10" data-name="Path 10" d="M57,9h4.8v4.8H57Z" transform="translate(78.323 11.189)" fill="#243259"/>
    <path id="Path_11" data-name="Path 11" d="M48,9H64.79v4.8H48Z" transform="translate(65.735 11.189)" fill="#243259"/>
    <path id="Path_12" data-name="Path 12" d="M5,57H31.385v4.8H5Z" transform="translate(5.595 78.323)" fill="#243259"/>
    <path id="Path_13" data-name="Path 13" d="M5,53H9.8v4.8H5Z" transform="translate(5.595 72.729)" fill="#243259"/>
    <path id="Path_14" data-name="Path 14" d="M9,53H25.79v4.8H9Z" transform="translate(11.189 72.729)" fill="#243259"/>
    <path id="Path_15" data-name="Path 15" d="M88.973,38h-4.8V78.777h-4.8V42.8h-4.8V78.777h-4.8V57.189h-4.8V78.777h-4.8V49.993h-4.8V78.777h-4.8V54.79H45.8V78.777H41v4.8H93.77v-4.8h-4.8Z" transform="translate(55.945 51.749)" fill="#243259"/>
    <path id="Path_16" data-name="Path 16" d="M61,59h4.8v4.8H61Z" transform="translate(83.918 81.12)" fill="#243259"/>
    <path id="Path_17" data-name="Path 17" d="M41,59H84.175v4.8H41Z" transform="translate(55.945 81.12)" fill="#243259"/>
    <path id="Path_18" data-name="Path 18" d="M27.385,53.77A26.385,26.385,0,1,0,1,27.385,26.416,26.416,0,0,0,27.385,53.77ZM48.973,27.385a21.443,21.443,0,0,1-3.008,10.938l-7.772-5.829a11.869,11.869,0,0,0,1.185-5.109,12.016,12.016,0,0,0-9.595-11.751v-9.7A21.615,21.615,0,0,1,48.973,27.385Zm-21.588-7.2a7.2,7.2,0,1,1-7.2,7.2A7.2,7.2,0,0,1,27.385,20.189Zm-2.4-14.25v9.7A11.986,11.986,0,1,0,35.3,36.322l7.781,5.836a21.572,21.572,0,1,1-18.1-36.219Z" transform="translate(0 0)" fill="#243259"/>
  </g>
</svg>
